<svg xmlns="http://www.w3.org/2000/svg" version="1.1" xmlns:xlink="http://www.w3.org/1999/xlink"
     xmlns:svgjs="http://svgjs.dev/svgjs" width="724.7" height="794.52">
    <svg id="SvgjsSvg1001" data-name="Layer 1" xmlns="http://www.w3.org/2000/svg" viewBox="0 0 724.7 794.52">
        <path fill="#605dff"
              d="m301.93 303.67 2.51 5.86 3.76 6.28 4.19 5.44 3.35 2.92 4.18 3.35 7.53 4.19 8.79 2.92 7.11 1.26h7.53l7.11-1.26 7.95-2.51 7.95-4.18 4.19-2.93 5.85-5.86 3.77-5.02 3.35-6.27 2.51-6.7 1.67-7.53.42-7.11-1.26-7.95-2.51-8.79-3.76-7.11-4.19-5.86-2.92-2.93-4.19-3.76-4.6-3.35-6.7-3.35-6.27-2.09-6.7-1.25h-9.62l-3.35.41-7.95 2.1-6.69 2.93-4.18 2.51-5.02 3.76-3.77 3.77-5.44 7.11-3.35 6.28-2.51 7.53-1.25 7.95v7.53l.42 2.93zm150.77 273.3-11.49 7.66-13.01 6.13-13.79 3.06h-6.12l-5.36-1.53-5.36-3.83-3.83-6.89-1.53-8.42 1.53-20.68 4.6-55.89 7.65-89.58v-29.86l-2.29-12.26-2.3-1.53-13.02-3.06-16.84-3.06h-29.86l-11.49 1.53-14.55 3.06-13.78 4.6-9.19 4.59-9.95 6.13-4.59 6.12-3.83 12.25-4.6 19.14v6.13l5.36-2.3 9.19-3.83 9.19-2.29h7.66l4.59.76 3.83 1.53 4.59 3.07 3.07 4.59 2.29 7.66v12.25l-2.29 22.97-6.13 63.55-5.36 52.83v19.14l1.53 10.72 3.83 13.78 6.89 14.55 6.89 9.19 9.19 7.65 10.72 6.13 11.48 3.83 13.79 2.29h10.72l9.95-1.53 10.72-3.06 7.66-3.83 8.42-4.59 9.95-7.66 6.89-7.66 5.36-6.89 6.13-11.48 6.12-18.38 3.07-19.14v-7.66zm-163.42 118 145.15-.14c15.44 1.53 15.41 22.74 0 24.3H290.28c-15.01-1.52-15.51-21.75-.99-24.16Zm6.78 37.87 131.61-.15c13.63 2.55 13.59 21.32-.01 23.76h-130.6c-13.1-2.32-13.8-20.08-.99-23.61Zm14.03 37.15h103.1c0 13.55-10.98 24.53-24.53 24.53h-54.04c-13.55 0-24.53-10.98-24.53-24.53"></path>
        <rect y="397.96" width="148.1" height="27.63" rx="13.81" ry="13.81" style="fill:#9caaff"></rect>
        <rect x="48.4" y="219.7" width="148.1" height="27.63" rx="13.81" ry="13.81"
              transform="rotate(31.92 122.453 233.545)" style="fill:#9caaff"></rect>
        <rect x="148.82" y="100.83" width="148.1" height="27.63" rx="13.81" ry="13.81"
              transform="rotate(60 222.871 114.644)" style="fill:#9caaff"></rect>
        <rect x="289.15" y="60.24" width="148.1" height="27.63" rx="13.81" ry="13.81" transform="rotate(90 363.2 74.05)"
              style="fill:#9caaff"></rect>
        <rect x="425.63" y="100.83" width="148.1" height="27.63" rx="13.81" ry="13.81"
              transform="rotate(120 499.688 114.648)" style="fill:#9caaff"></rect>
        <rect style="fill:#9caaff" x="529.56" y="219.7" width="148.1" height="27.63" rx="13.81" ry="13.81"
              transform="rotate(150 603.617 233.512)"></rect>
        <rect fill="#605dff" x="576.6" y="397.96" width="148.1" height="27.63" rx="13.81" ry="13.81"
              transform="rotate(180 650.645 411.77)"></rect>
    </svg>
    <style>@media (prefers-color-scheme: light) { :root { filter: none; } }
        @media (prefers-color-scheme: dark) { :root { filter: none; } }
    </style>
</svg>