<svg xmlns="http://www.w3.org/2000/svg" viewBox="0 0 2189.23 368.2">
    <path fill="#000000"
          d="M562.09 296.98c0 21.56 5.27 30.18 5.27 41.19 0 14.85-13.41 25.87-29.7 25.87-28.26 0-32.57-33.53-32.57-66.1V212.2c0-21.56-9.58-46.94-36.88-46.94-15.81 0-26.82 5.75-34.01 15.81v155.68c0 14.85-12.93 27.3-28.26 27.3-20.12 0-28.74-16.29-28.74-34.97V190.65c0-21.08-5.27-29.7-5.27-40.71 0-14.85 8.62-28.26 28.74-28.26 14.85 0 22.51 10.54 28.26 26.35 14.37-16.77 30.66-29.7 62.75-29.7 40.24 0 70.41 34.97 70.41 98.2V297Zm138.42-173.4h25.87c18.68 0 25.87 11.98 25.87 22.99 0 12.93-9.58 22.03-25.87 22.03h-25.87v161.9c0 19.64-7.19 33.53-28.74 33.53s-28.74-14.37-28.74-33.53V168.6h-16.29c-15.33 0-22.99-11.02-22.99-22.03s7.66-22.99 22.99-22.99h16.29V78.55c0-45.98 23.47-78.08 65.14-78.08 25.87 0 61.79 6.23 61.79 35.92 0 13.89-12.45 22.51-22.51 22.51-14.37 0-12.93-9.1-29.7-9.1-10.54 0-17.24 7.66-17.24 24.43v49.34Zm168.13 172.44c0 20.12 5.27 31.61 5.27 41.19 0 15.81-12.93 26.82-28.74 26.82-29.7 0-33.53-33.53-33.53-67.54V27.78C811.64 12.45 824.09 0 840.38 0s28.26 12.45 28.26 27.78zm263.92-25.86c0 46.94-14.37 97.72-93.89 97.72s-94.84-51.25-94.84-98.2V148.97c0-15.33 11.98-27.3 28.26-27.3s28.74 11.98 28.74 27.3v122.62c0 27.3 12.45 41.67 37.84 41.67s37.36-13.89 37.36-40.71V148.97c0-15.33 12.93-27.3 28.26-27.3s28.26 11.98 28.26 27.3v121.19Zm115.92-18.2c1.44 43.11 18.68 66.1 45.98 66.1 16.29 0 28.74-8.14 38.8-21.08 4.79-6.71 11.5-12.45 22.99-12.45 16.29 0 27.3 13.41 27.3 25.87 0 9.1-4.31 16.77-9.58 22.51-19.16 22.99-48.86 34.97-80.47 34.97-64.19 0-102.51-51.25-102.51-125.98s39.76-123.58 102.99-123.58 96.76 46.46 96.76 104.9c0 17.24-10.54 28.74-31.61 28.74zm44.07-83.35c-23.47 0-40.71 16.77-44.07 47.9h83.35c-1.92-32.09-16.77-47.9-39.28-47.9m337.21 128.37c0 21.56 5.27 30.18 5.27 41.19 0 14.85-13.41 25.87-29.7 25.87-28.26 0-32.57-33.53-32.57-66.1V212.2c0-21.56-9.58-46.94-36.88-46.94-15.81 0-26.82 5.75-34.01 15.81v155.68c0 14.85-12.93 27.3-28.26 27.3-20.12 0-28.74-16.29-28.74-34.97V190.65c0-21.08-5.27-29.7-5.27-40.71 0-14.85 8.62-28.26 28.74-28.26 14.85 0 22.51 10.54 28.26 26.35 14.37-16.77 30.66-29.7 62.75-29.7 40.24 0 70.41 34.97 70.41 98.2V297Zm140.35-173.4h38.32c15.81 0 23.47 11.02 23.47 22.51s-7.66 22.51-23.47 22.51h-38.32v130.77c0 14.37 8.14 19.16 14.37 19.16 9.58 0 13.41-9.58 26.35-9.58 11.97 0 25.39 7.66 25.39 22.51 0 26.82-29.7 36.4-54.13 36.4-47.9 0-69.46-31.61-69.46-83.83V168.59h-15.81c-14.85 0-23.47-9.1-23.47-22.51 0-11.02 8.62-22.51 23.47-22.51h15.81V87.65c0-16.29 10.54-32.09 28.74-32.09 16.29 0 28.74 11.02 28.74 27.3v40.71Zm144.65-113.04c17.24 0 30.66 12.93 30.66 29.7s-13.41 29.22-30.66 29.22-31.13-12.45-31.13-29.22 13.41-29.7 31.13-29.7m28.74 285.48c0 20.6 5.27 28.74 5.27 40.72 0 15.33-12.45 27.3-28.26 27.3-29.22 0-34.01-33.05-34.01-67.54V149.45c0-15.81 9.1-27.78 28.74-27.78 15.33 0 28.26 12.45 28.26 27.78v146.58Zm236.15 11.02c0 13.89 9.58 18.68 9.58 30.66s-10.06 26.34-29.22 26.34c-21.55 0-28.26-18.2-30.66-31.61-12.93 22.03-34.49 35.45-63.23 35.45-35.92 0-63.71-21.55-63.71-63.71 0-33.05 17.24-47.9 34.01-55.56 25.87-11.98 62.75-10.54 85.74-22.03v-28.26c0-19.16-7.18-26.82-24.91-26.82-16.76 0-22.99 7.19-31.61 18.68-5.75 7.66-11.97 15.81-25.87 15.81-17.24 0-26.34-11.97-26.34-27.78 0-13.41 6.71-26.82 17.72-37.36 14.37-13.41 35.45-22.03 68.02-22.03 45.98 0 80.47 16.77 80.47 82.39v105.86Zm-56.04-50.29c-18.68 10.06-39.76 11.98-52.21 18.68-8.14 4.31-13.41 11.02-13.41 22.51 0 15.81 9.58 24.43 25.87 24.43 18.2 0 31.61-11.02 39.76-25.39v-40.24ZM139.56 141.31l1.16 2.71 1.75 2.9 1.93 2.51 1.55 1.36 1.93 1.54 3.48 1.94 4.06 1.35 3.29.58h3.48l3.29-.58 3.67-1.16 3.68-1.93 1.93-1.36 2.71-2.7 1.74-2.32 1.55-2.91 1.16-3.09.77-3.48.2-3.29-.58-3.67-1.16-4.06-1.74-3.29-1.94-2.71-1.35-1.35-1.94-1.74-2.12-1.55-3.1-1.55-2.9-.97-3.09-.58h-4.45l-1.55.2-3.67.96-3.1 1.36-1.93 1.16-2.32 1.74-1.74 1.74-2.52 3.29-1.55 2.9-1.16 3.48-.58 3.67v3.49l.2 1.35zm69.7 126.33-5.31 3.54-6.02 2.83-6.37 1.42h-2.83l-2.48-.71-2.48-1.77-1.77-3.18-.7-3.9.7-9.55 2.13-25.84 3.54-41.41v-13.8l-1.06-5.66-1.07-.71-6.01-1.42-7.79-1.41h-13.8l-5.31.7-6.73 1.42-6.37 2.12-4.24 2.13-4.6 2.83-2.13 2.83-1.77 5.66-2.12 8.85v2.83l2.48-1.06 4.24-1.77 4.25-1.06h3.54l2.12.35 1.77.71 2.13 1.42 1.41 2.12 1.06 3.54v5.66l-1.06 10.62-2.83 29.38-2.48 24.42v8.84l.71 4.96 1.77 6.37 3.19 6.72 3.18 4.25 4.25 3.54 4.95 2.83 5.31 1.77 6.37 1.06h4.96l4.6-.7 4.95-1.42 3.54-1.77 3.9-2.12 4.6-3.54 3.18-3.54 2.48-3.19 2.83-5.31 2.83-8.49 1.42-8.85v-3.54zm-75.54 54.55 67.09-.07c7.14.71 7.12 10.51 0 11.23h-66.63c-6.94-.7-7.17-10.05-.46-11.17Zm3.13 17.5 60.84-.07c6.3 1.18 6.28 9.85 0 10.98h-60.37c-6.06-1.07-6.38-9.28-.46-10.91Zm6.49 17.17H191c0 6.26-5.08 11.34-11.34 11.34h-24.98c-6.26 0-11.34-5.08-11.34-11.34"/>
    <rect y="184.89" width="68.46" height="12.77" rx="6.39" ry="6.39" style="fill:#000000"/>
    <rect x="22.37" y="102.49" width="68.46" height="12.77" rx="6.39" ry="6.39" transform="rotate(31.92 56.597 108.886)"
          style="fill:#000000"/>
    <rect x="68.79" y="47.55" width="68.46" height="12.77" rx="6.39" ry="6.39" transform="rotate(60 103.02 53.936)"
          style="fill:#000000"/>
    <rect fill="#000000" x="133.66" y="28.78" width="68.46" height="12.77" rx="6.39" ry="6.39"
          transform="rotate(90 167.89 35.17)"/>
    <rect fill="#000000" x="196.75" y="47.55" width="68.46" height="12.77" rx="6.39" ry="6.39"
          transform="rotate(120 230.975 53.933)"/>
    <rect fill="#000000" x="244.79" y="102.49" width="68.46" height="12.77" rx="6.39" ry="6.39"
          transform="rotate(150 279.016 108.877)"/>
    <rect fill="#000000" x="266.53" y="184.89" width="68.46" height="12.77" rx="6.39" ry="6.39"
          transform="rotate(180 300.755 191.28)"/>
</svg>
