<?xml version="1.0" encoding="UTF-8"?>
<svg width="1000" height="820" viewBox="0 0 1000 820"
     xmlns="http://www.w3.org/2000/svg"
     font-family="Helvetica, Arial, sans-serif"
     font-size="14"
     text-anchor="middle">

    <!-- =====  Markers & Styles  ====================================== -->
    <defs>
        <marker id="arrow" viewBox="0 0 10 10" refX="9" refY="5"
                markerWidth="7" markerHeight="7" orient="auto-start-reverse">
            <path d="M 0 0 L 10 5 L 0 10 z" fill="#555"/>
        </marker>

        <style><![CDATA[
      .title      { font-size:15px; font-weight:bold; }
      .lb         { fill:#8EC2FA; stroke:#3C89F5; stroke-width:1.2; }
      .api        { fill:#FFFFFF; stroke:#8653B5; stroke-width:1.4; }
      .proc       { fill:#FFE0C8; stroke:#E09A66; stroke-width:1.4; }
      .service    { fill:#FFFFFF; stroke:#8653B5; stroke-width:1.4; }
      .external   { fill:#FFFFFF; stroke:#646464; stroke-width:1.2; }
      .groupProc  { fill:#FFF5EF; stroke:#FFBD96; stroke-width:2; }
      .groupExt   { fill:#FFF9E5; stroke:#E8B952; stroke-width:2; }
    ]]></style>
    </defs>

    <!-- =====  Groups / Backdrops  ==================================== -->
    <g class="groupProc">
        <rect x="50" y="140" width="900" height="490" rx="6"/>
        <text x="500" y="160" class="title">Processing &amp; Business Logic</text>
    </g>

    <g class="groupExt">
        <rect x="150" y="650" width="700" height="120" rx="6"/>
        <text x="500" y="670" class="title">External Systems</text>
    </g>

    <!-- =====  Clients  =============================================== -->
    <g class="service">
        <rect x="220" y="20" width="140" height="40" rx="6"/>
        <text x="290" y="46">Frontend</text>

        <rect x="640" y="20" width="140" height="40" rx="6"/>
        <text x="710" y="46">Client / SDK</text>
    </g>

    <!-- =====  Load Balancers  ======================================== -->
    <g class="lb">
        <rect x="220" y="80" width="140" height="44" rx="6"/>
        <text x="290" y="107">Load Balancer 1</text>

        <rect x="640" y="80" width="140" height="44" rx="6"/>
        <text x="710" y="107">Load Balancer 2</text>
    </g>

    <!-- =====  API Layer  ============================================= -->
    <g class="api">
        <rect x="100" y="190" width="160" height="48" rx="6"/>
        <text x="180" y="218">Web API</text>

        <rect x="370" y="190" width="260" height="48" rx="6"/>
        <text x="500" y="214">Campaign &amp; Integration API</text>

        <rect x="700" y="190" width="220" height="48" rx="6"/>
        <text x="810" y="218">Event Ingestion (Capture API)</text>
    </g>

    <!-- =====  Event Workers  ========================================= -->
    <g class="proc">
        <rect x="350" y="270" width="300" height="52" rx="6"/>
        <text x="500" y="302">Event Workers &amp; Processing</text>
    </g>

    <!-- =====  Core Services (single horizontal line) ================= -->
    <g class="service">
        <!-- Sync Service -->
        <rect x="80" y="370" width="160" height="48" rx="6"/>
        <text x="160" y="398">Sync Service</text>

        <!-- Workflow Engine -->
        <rect x="260" y="370" width="200" height="48" rx="6"/>
        <text x="360" y="398">Workflow Engine</text>

        <!-- AI-Driven Customer Success Flow -->
        <rect x="480" y="370" width="240" height="48" rx="6"/>
        <text x="600" y="398">AI-Driven Customer Success Flow</text>

        <!-- Segmentation Engine -->
        <rect x="730" y="370" width="220" height="48" rx="6"/>
        <text x="840" y="398">Segmentation Engine</text>
    </g>

    <!-- =====  External Destinations  ================================= -->
    <g class="external">
        <rect x="190" y="700" width="180" height="48" rx="6"/>
        <text x="280" y="728">External Data Sources</text>

        <rect x="410" y="700" width="180" height="48" rx="6"/>
        <text x="500" y="728">Messaging Services</text>

        <rect x="630" y="700" width="220" height="48" rx="6"/>
        <text x="740" y="728">Webhooks / Destinations</text>
    </g>

    <!-- =====  Arrows  ================================================= -->

    <!-- Clients → Load balancers -->
    <path d="M290 60 V80" stroke="#555" stroke-width="1.6" marker-end="url(#arrow)"/>
    <path d="M710 60 V80" stroke="#555" stroke-width="1.6" marker-end="url(#arrow)"/>

    <!-- From load balancers to APIs -->
    <path d="M290 124 V190" stroke="#555" stroke-width="1.6" marker-end="url(#arrow)"/>

    <!-- Cross links load balancers to other APIs for redundancy -->


    <path d="M710 124 C710 155, 500 155, 500 190" stroke="#bbb" stroke-width="1.2" marker-end="url(#arrow)"
          fill="none"/>


    <path d="M710 124 V190" stroke="#555" stroke-width="1.6" marker-end="url(#arrow)"/>

    <!-- Campaign & Integration API → Event Workers -->
    <path d="M500 238 V270" stroke="#555" stroke-width="1.6" marker-end="url(#arrow)"/>

    <!-- Event Ingestion → Event Workers (fixed, now touching) -->
    <path d="M810 238 L650 270" stroke="#555" stroke-width="1.6"
          marker-end="url(#arrow)"/>

    <!-- Event Workers → Core services -->
    <path d="M500 322 V370" stroke="#555" stroke-width="1.6" marker-end="url(#arrow)"/>

    <!-- Curved to Sync Service -->
    <path d="M500 322 C500 340 160 340 160 370"
          stroke="#555" stroke-width="1.6" fill="none" marker-end="url(#arrow)"/>

    <!-- Curved to Segmentation Engine -->
    <path d="M500 322 C500 340 840 340 840 370"
          stroke="#555" stroke-width="1.6" fill="none" marker-end="url(#arrow)"/>

    <!-- Workflow Engine ↔ AI Flow (one-way down) -->
    <path d="M360 418 H480" stroke="#777" stroke-dasharray="4 3"
          stroke-width="1.4" marker-end="url(#arrow)"/>

    <!-- AI Flow ↔ Segmentation Engine  (bidirectional) -->
    <!-- AI → Segmentation -->
    <path d="M720 394 H730" stroke="#777" stroke-width="1.4"
          marker-end="url(#arrow)"/>
    <!-- Segmentation → AI -->
    <path d="M730 402 H720" stroke="#777" stroke-width="1.4"
          marker-end="url(#arrow)"/>

    <!-- Sync Service → Workflow Engine (dashed) -->
    <path d="M160 418 H260" stroke="#777" stroke-dasharray="4 3"
          stroke-width="1.4" marker-end="url(#arrow)"/>

    <!-- Core services → External systems -->
    <path d="M160 418 L280 700" stroke="#555" stroke-width="1.6" marker-end="url(#arrow)"/>
    <path d="M600 418 L500 700" stroke="#555" stroke-width="1.6" marker-end="url(#arrow)"/>
    <path d="M840 418 L740 700" stroke="#555" stroke-width="1.6" marker-end="url(#arrow)"/>

</svg>